<svg version="1.1" id="Layer_1" xmlns="http://www.w3.org/2000/svg" xmlns:xlink="http://www.w3.org/1999/xlink" x="0px" y="0px"
	 width="100%" viewBox="180 80 216 234" enable-background="new 0 0 576 384" xml:space="preserve">
<rect width="200%" height="200%" fill="white"/>
<path fill="#066899" opacity="1.000000" stroke="none" 
	d="
M450.000000,385.000000 
	C370.979095,385.000000 291.958221,385.000000 212.462708,384.725586 
	C210.646973,381.715271 209.661270,378.935608 211.260971,375.962311 
	C214.009033,370.854584 211.350815,367.662872 207.212204,365.355316 
	C201.959793,362.426758 196.451691,360.061920 190.282394,359.775146 
	C184.635239,359.512665 178.963684,359.429626 173.353104,358.811584 
	C165.961121,357.997314 159.213455,355.507996 155.742004,348.255615 
	C152.881287,342.279114 148.624313,337.961914 142.874802,334.799011 
	C139.534332,332.961365 136.420700,330.682861 133.324905,328.437469 
	C130.522644,326.404999 128.388168,323.589661 128.295380,320.128082 
	C127.921227,306.169647 125.463966,292.288940 126.605698,278.283600 
	C127.276245,270.058105 127.245110,261.815643 124.223015,254.109360 
	C119.600861,242.322937 117.184685,229.779510 111.559883,218.344971 
	C109.403969,213.962250 108.782967,209.140564 108.923599,204.223114 
	C109.085503,198.562302 109.280663,192.890991 109.112961,187.234573 
	C108.749641,174.980026 111.590622,163.452774 116.455338,152.319321 
	C117.466507,150.005157 118.479729,147.623138 120.598251,146.180649 
	C131.861725,138.511414 139.865158,127.994926 146.861069,116.554092 
	C152.404617,107.488396 156.216492,95.650421 147.683334,85.497063 
	C146.074982,83.583351 144.828522,81.318626 144.447159,78.805420 
	C142.452103,65.657478 144.770721,53.437672 153.611191,43.223911 
	C159.486313,36.436150 165.415009,29.320530 172.608978,24.143095 
	C181.634232,17.647718 178.305206,9.060126 179.000000,1.000000 
	C267.354218,1.000000 355.708466,1.000000 444.401489,1.231737 
	C444.964691,6.153316 446.483704,10.728195 445.766968,15.536011 
	C445.618256,16.533468 446.742004,18.223394 447.739990,18.808653 
	C455.024506,23.080547 459.446625,30.111469 464.693604,36.285721 
	C477.803894,51.712967 490.623413,67.354462 491.745422,89.000893 
	C491.892334,91.835182 492.750946,94.716469 495.586792,96.196655 
	C501.030548,99.038086 502.741943,103.960228 502.820526,109.526772 
	C502.987427,121.349739 503.961884,133.168793 503.870422,144.958344 
	C503.795959,154.555328 506.027649,163.123901 509.311371,172.016556 
	C519.276489,199.003510 520.837097,226.300827 509.010345,253.284866 
	C504.933044,262.587677 500.363220,271.642090 497.874969,281.584259 
	C496.724792,286.179962 494.279175,291.148834 490.475586,293.161194 
	C482.395538,297.436005 484.074127,304.165894 484.156708,310.739380 
	C484.190094,313.395721 484.608978,316.045563 484.803131,318.701965 
	C485.161377,323.603485 484.686707,328.323944 482.105927,332.694641 
	C475.417999,344.021118 468.542694,355.158936 458.608948,364.096008 
	C453.400055,368.782349 450.778412,375.137512 448.453766,381.646393 
	C447.692535,383.777740 448.605865,384.291443 450.000000,385.000000 
M342.279053,212.604568 
	C344.537109,210.601868 344.506805,207.896255 344.528412,205.217606 
	C344.592834,197.221619 344.453552,189.218460 344.751465,181.231445 
	C345.046234,173.326782 348.123932,170.046463 355.984833,169.330215 
	C361.277710,168.847931 366.635345,169.115799 371.957733,168.896088 
	C373.738708,168.822571 376.106873,169.455856 376.675842,166.797653 
	C375.947479,165.228867 374.689270,165.288559 373.555084,165.288376 
	C354.230652,165.285309 334.906158,165.289429 315.581970,165.366104 
	C313.880554,165.372864 311.809448,165.169189 311.140137,167.497498 
	C311.761963,169.200638 313.320343,168.975037 314.529297,169.272827 
	C324.052124,171.618317 326.280670,174.366425 326.346191,184.139282 
	C326.400909,192.302200 326.419281,200.465546 326.407379,208.628632 
	C326.404785,210.414154 326.927155,212.620773 325.002075,213.643234 
	C317.632904,217.557144 309.915497,220.049911 301.413147,219.158279 
	C301.173889,216.474777 302.509003,215.080551 303.414001,213.544739 
	C306.711884,207.948105 310.118408,202.415085 313.381714,196.798676 
	C314.983398,194.042130 315.807983,191.134689 313.737030,187.652420 
	C312.494812,189.291946 311.416718,190.536041 310.535126,191.906540 
	C303.237030,203.252228 295.745544,214.483627 288.813904,226.050064 
	C285.980347,230.778244 282.898712,231.878372 277.729492,230.573135 
	C272.067474,229.143463 266.788818,226.756927 260.326385,223.991089 
	C266.144928,232.986130 271.252533,240.776169 276.241028,248.641769 
	C278.487122,252.183273 280.391113,251.921432 282.417816,248.519501 
	C286.083374,242.366669 289.931976,236.317749 293.425354,230.069550 
	C295.268280,226.773392 297.569977,225.619537 301.402405,225.516602 
	C315.937408,225.126236 329.856781,222.342056 342.279053,212.604568 
M257.440521,139.055649 
	C260.424835,133.422241 264.017303,128.212997 268.740326,123.907143 
	C281.094818,112.643921 295.170197,109.569931 310.783173,115.934021 
	C321.687286,120.378731 329.383820,128.546539 335.248108,138.604675 
	C336.524689,140.794205 337.057800,143.608994 339.664032,144.959686 
	C342.071594,143.400787 343.712616,141.440796 343.490082,138.752487 
	C342.639709,128.479218 341.592377,118.222237 340.614197,107.959602 
	C340.480621,106.558365 340.118652,105.162514 338.438843,105.109833 
	C337.009918,105.065018 336.726898,106.328003 336.356750,107.498764 
	C334.136566,114.520927 332.807648,115.226028 326.015503,112.999458 
	C323.802582,112.274025 321.631348,111.415611 319.460785,110.567497 
	C307.856934,106.033478 295.780670,104.844070 283.598114,106.657692 
	C256.231598,110.731758 237.949799,131.916519 230.439941,155.829849 
	C230.320816,156.209183 230.682938,156.739639 230.876923,157.388336 
	C235.814331,158.356873 240.804871,157.636856 245.754959,157.847229 
	C248.905624,157.981110 250.693344,156.652893 251.573273,153.618423 
	C252.965424,148.817474 254.738297,144.144913 257.440521,139.055649 
M237.337753,190.221741 
	C246.631638,206.500488 260.542389,216.883377 278.287109,222.455902 
	C282.546112,223.793396 284.951202,222.461472 285.953735,218.033676 
	C285.410675,217.577377 284.982635,217.017807 284.418121,216.772919 
	C272.895538,211.774490 265.089691,202.828751 258.786743,192.398682 
	C254.225800,184.851227 249.924850,177.144440 245.612793,169.449966 
	C244.091171,166.734772 242.194183,165.287582 238.880447,165.343307 
	C228.893631,165.511230 218.902252,165.389206 208.913300,165.465057 
	C207.214096,165.477951 205.154648,165.078400 204.205231,167.625214 
	C207.000031,169.758163 210.252594,168.889709 213.232758,168.964539 
	C221.086685,169.161697 226.913452,172.378235 230.686951,179.398300 
	C232.574463,182.909729 234.873505,186.199966 237.337753,190.221741 
M326.362488,260.345398 
	C326.323303,264.878510 326.153259,269.324493 322.455627,272.758148 
	C318.959961,276.004242 313.497681,274.316833 309.649445,277.466156 
	C314.119537,280.687347 355.432190,280.299347 358.694794,277.359192 
	C357.976929,275.812866 356.433441,276.197754 355.215729,275.948059 
	C347.788208,274.424988 345.101990,271.742188 344.765381,264.256134 
	C344.407379,256.294647 344.608429,248.309402 344.465790,240.336319 
	C344.358032,234.315598 345.400726,228.191422 343.458923,221.606125 
	C338.832214,223.829071 334.927795,225.958328 330.826904,227.595276 
	C327.533905,228.909729 326.314056,230.960388 326.374481,234.435059 
	C326.519073,242.748367 326.389008,251.066452 326.362488,260.345398 
M227.529083,277.687042 
	C238.364777,277.430115 249.259827,278.188751 260.055847,276.451080 
	C258.041565,273.632385 255.436844,274.495392 253.101151,274.330627 
	C246.815002,273.887115 244.199188,271.785889 242.415359,265.755890 
	C241.594269,262.980225 241.611542,260.165283 241.606827,257.342590 
	C241.583511,243.359146 241.408020,229.371918 241.685791,215.393967 
	C241.798508,209.720810 238.814575,206.288345 235.052689,202.702057 
	C233.705276,205.042694 234.242966,207.240280 234.185684,209.337296 
	C233.704285,226.963867 235.125626,244.625168 233.400345,262.223969 
	C232.491501,271.494720 229.469299,274.062714 220.337906,274.359894 
	C218.540344,274.418396 216.298050,273.626923 214.888275,276.518372 
	C218.759995,278.721130 222.789795,277.216705 227.529083,277.687042 
z"/>
</svg>